<?xml version="1.0" encoding="utf-8"?>
<!-- Generator: Adobe Illustrator 23.0.1, SVG Export Plug-In . SVG Version: 6.00 Build 0)  -->
<svg version="1.1" id="レイヤー_1" xmlns="http://www.w3.org/2000/svg" xmlns:xlink="http://www.w3.org/1999/xlink" x="0px"
	 y="0px" viewBox="0 0 600 120" style="enable-background:new 0 0 600 120;" xml:space="preserve">
<style type="text/css">
	.st0{fill:#E5461E;}
</style>
<g>
	<path class="st0" d="M100.59,77.82c-2.24,1.06-4.22,1.58-5.95,1.58c-2.27,0-3.41-0.96-3.41-2.29c0-1.09,0.25-2.62,0.75-4
		c3.83-14.75,5.81-24.96,5.81-30.48c0-1.14-0.31-2.24-0.9-3.15c2.6-1.4,5.09-2.02,7.22-2.02c2.03,0,3.11,0.66,3.11,2.27
		c0,0.88-0.36,2.97-1.37,6.57l-2.07,10.6c9.96-13.05,17.1-19.43,21.43-19.43c2.27,0,3.4,0.95,3.4,3.14c0,0.27-0.2,1.2-0.32,2.93
		l-1.36-0.02c-0.07,0-0.28,0-0.34,0c-2.58,0-4.99,0.89-7.06,2.81c-2.04,1.78-5.21,5.22-9.51,10.32c5.01,10.89,9.7,16.48,13.74,16.48
		c0.04,0,0.12,0,0.28,0c-0.8,4.21-2.79,6.45-5.96,6.45c-2.56,0-5.17-1.85-7.98-5.83c-2.8-3.98-5.1-8.59-6.88-13.98
		c-1.95,8.86-2.86,14.11-2.86,16.19C100.35,76.21,100.38,77.11,100.59,77.82z"/>
	<path class="st0" d="M134.12,48.08c2.27-1.68,4.58-2.53,7.03-2.53c2.08,0,3.47,1.94,4.03,5.67c0.56,6.83,1.17,12.81,1.98,17.96
		l5.71-9.93c2.57-4.63,3.78-8.09,3.78-10.38c0-0.76-0.08-1.66-0.37-2.85c5.12,0.08,7.54,1.26,7.54,3.54c0,2.8-3.82,9.71-11.76,20.86
		c-7.94,11.29-13.99,16.93-18.29,16.93c-2.6,0-3.97-1.01-3.97-2.76c0-1.23,0.79-2.91,2.23-5.05c0.9,0.63,1.81,1.08,2.86,1.08
		c2.36,0,4.5-1.62,6.08-4.6C138.58,60.31,136.3,50.95,134.12,48.08z"/>
	<path class="st0" d="M176.92,68.56c0-4.37,0.78-8.28,2.22-12.42c1.43-4.01,3.22-6.01,5.51-6.01c2.53,0,3.72,2.18,3.72,6.26
		c0,4.03-0.64,8.2-2.06,12.24c-1.42,4.04-3.19,6.19-5.45,6.19C178.28,74.82,176.92,72.64,176.92,68.56z M192.07,72.53
		c3.68-4.96,5.45-10.13,5.45-15.65c0-3.41-0.95-6.22-2.97-8.29c-2.17-2.22-4.79-3.33-8.17-3.33c-4.98,0-9.45,2.47-13.13,7.13
		c-3.55,4.8-5.46,9.97-5.46,15.64c0,3.47,1.08,6.29,3.12,8.49c2.03,1.91,4.83,3.01,8.25,3.01
		C184.08,79.54,188.38,77.21,192.07,72.53z"/>
	<path class="st0" d="M210.25,55.23h-1.12c-1.92,0-3.68,0.33-5.43,1.12c-0.18-0.81-0.2-1.38-0.2-1.7c0-1.46,0.46-2.59,1.12-3.38
		c0.8-0.65,2.88-0.97,6.55-0.97c0.86-4.51,1.36-7.36,1.36-8.58c0-1.09-0.26-2.16-0.79-3.08c2.25-0.84,4.28-1.19,6.22-1.19
		c2.38,0,3.71,0.9,3.71,2.68c0,1.33-0.28,3.01-0.84,5.08c-0.83,3.35-1.33,4.9-1.33,5.08h2.75c2.07,0,4.38-0.27,6.91-0.79
		c-0.25,3.93-2.51,5.76-6.78,5.76c-0.34,0-0.95,0-1.81-0.01c-0.87-0.01-1.63-0.03-2-0.03c-1.45,7.11-2.25,11.77-2.25,14.41
		c0,2.43,0.89,3.63,2.83,3.63c1.67,0,3.51-0.69,5.78-2.38c0.55,1.09,0.82,1.83,0.82,2.79c0,1.71-1.1,3-3.16,4.13
		c-2.07,1.15-4.32,1.72-6.63,1.72c-5.4,0-8.17-2.46-8.17-7.94C207.78,68.15,208.61,62.85,210.25,55.23z"/>
	<path class="st0" d="M243.18,68.56c0-4.37,0.79-8.28,2.22-12.42c1.44-4.01,3.23-6.01,5.51-6.01c2.53,0,3.72,2.18,3.72,6.26
		c0,4.03-0.65,8.2-2.06,12.24c-1.42,4.04-3.33,6.19-5.45,6.19C244.54,74.82,243.18,72.64,243.18,68.56z M258.33,72.53
		c3.68-4.96,5.45-10.13,5.45-15.65c0-3.41-0.94-6.22-2.97-8.29c-2.16-2.22-4.8-3.33-8.17-3.33c-5.12,0-9.45,2.47-13.14,7.13
		c-3.55,4.8-5.46,9.97-5.46,15.64c0,3.47,1.09,6.29,3.12,8.49c2.03,1.91,4.83,3.01,8.25,3.01
		C250.34,79.54,254.64,77.21,258.33,72.53z"/>
	<path class="st0" d="M304.58,43.56l0.03,2.52c0,0.26,0,0.53,0,0.81c0,1.11-0.01,2.37-0.04,4.04c-0.04,2.29-0.06,3.96-0.06,4.85
		v2.64l0.02,3.5h-8.74C298.84,55.23,301.73,49.17,304.58,43.56z M304.46,66.45l0.12,5.64c0.11,5.61,1.72,8.12,4.52,8.12
		c1.87,0,4.12-0.62,6.47-1.87c-1.88-2.8-2.96-7.47-2.96-14.24V50.61c0-0.89,0.02-2.29,0.04-4.22c0.02-1.78,0.03-3.19,0.03-4.08
		c0-3.06-0.78-4.52-2.92-4.52c-1.09,0-2.31,0.24-3.93,0.58l-3.61,1.08c-2.55,4.95-4.55,8.67-5.98,11.19
		c-4.55,8.63-9.09,16.98-13.62,25.34c-0.57,0.81-0.85,1.83-0.85,2.49c0,1.16,0.82,1.74,2.48,1.74c1.44,0,3.26-0.2,5.71-1.16
		c-0.17-0.15-0.18-0.6-0.18-0.77c0-1.61,0.55-3.78,1.65-6.19c0.85-1.79,1.7-3.56,2.55-5.63H304.46z"/>
	<path class="st0" d="M335.91,59.5c4.19-8.8,8.68-13.14,13.22-13.14c3.43,0,5.14,1.72,5.14,5.15c0,2.52-0.59,6.21-1.74,10.97
		c-1.17,5.04-1.75,8.9-1.75,11.28c0,1.84,0.52,3.51,1.3,4.71c-1.79,1.16-3.56,1.73-5.33,1.73c-3.22,0-4.55-1.31-4.55-4.19
		c0-2.22,0.16-4.98,0.77-8.01c1.67-8.17,2.63-12.52,2.63-13.35c0-0.87-0.42-1.38-0.98-1.38c-1.09,0-3.39,3.14-6.88,9.58
		c-3.49,6.3-5.23,11.03-5.23,14.48c0,0.89,0.07,1.54,0.49,2.26c-1.68,0.5-3.33,0.62-4.95,0.62c-2.82,0-4.09-0.79-4.09-2.92
		c0-1.09,0.09-2.31,0.59-3.96l1.05-3.66c2.3-9.64,3.44-16.13,3.44-19.32c0-0.88-0.37-1.73-0.55-2.55c1.93-0.82,4-1.15,5.35-1.15
		c2.65,0,3.85,1.08,3.85,3.1C337.69,50.9,337.09,54.1,335.91,59.5z"/>
	<path class="st0" d="M366.37,47.84c2.26-0.84,4.42-1.19,6.19-1.19c2.37,0,3.83,0.9,3.83,2.83c0,0.85-0.35,1.79-0.5,3.1
		c-2.78,10.38-4.03,17.67-4.03,21.28c0,1.77,0.25,3.4,1.3,4.61c-1.79,1.16-3.55,1.73-5.29,1.73c-3.28,0-4.93-1.31-4.93-4.19
		c0-2.69,0.92-6.78,2.17-12.55c1.26-5.91,2.17-9.99,2.17-12.54C367.3,49.85,366.9,48.91,366.37,47.84z M377.57,41.57
		c-1.73,0.85-3.37,1.34-4.95,1.34c-2.23,0-3.05-0.59-3.05-1.75c0-0.49,0.04-1.07,0.12-1.9c0.08-0.84,0.13-1.42,0.13-1.77
		c0-0.28-0.06-0.59-0.17-1.07c1.92-0.66,3.93-1.14,5.22-1.14c2.33,0,3.49,1.02,3.49,2.77C378.36,38.87,378.19,40.04,377.57,41.57z"
		/>
	<path class="st0" d="M408.63,79.59c-1.37,0.5-3,0.62-4.59,0.62c-2.36,0-3.53-0.76-3.53-2.56c0-0.95,0.13-2.58,0.69-4.93
		c2.31-10.32,3.46-16.37,3.46-18.14c0-0.73-0.1-1.02-0.59-1.02c-1.1,0-3.44,3.3-7,9.48c-3.84,6.6-5.62,11.25-5.62,14.23
		c0,0.64,0.07,1.6,0.49,2.31c-1.67,0.5-3.29,0.62-4.55,0.62c-2.74,0-3.98-0.79-3.98-2.92c0-1.1,0.09-2.32,0.58-3.96
		c2.91-11.65,4.5-19.51,4.5-23.03c0-0.85-0.37-1.69-0.55-2.5c2.23-0.82,3.98-1.15,5.28-1.15c2.31,0,3.45,1.08,3.45,3.1
		c0,1.21-0.12,2.89-0.63,4.88l-1.16,4.87c5.08-8.81,9.64-13.14,13.68-13.14c2.87,0,4.46,1.73,4.46,5.17c0,1.05-0.37,2.29-0.56,3.99
		c-0.47,1.94-0.58,3.17-0.61,3.99c4.84-8.81,9.71-13.14,13.79-13.14c2.91,0,4.51,1.66,4.51,4.86c0,0.89-0.43,2.82-1,5.64
		c-1.82,9.03-2.85,14.7-2.85,16.87c0,1.85,0.52,3.52,1.57,4.74c-2.06,1.16-3.81,1.73-5.51,1.73c-2.87,0-4.17-1.3-4.17-4.18
		c0-2.33,0.18-5.19,1.11-8.63c1.37-7.87,2.33-12.14,2.33-12.81c0-0.73-0.39-1.02-0.59-1.02c-1.1,0-3.42,3.3-7.27,9.48
		c-3.56,6.6-5.35,11.25-5.35,14.24C408.43,77.92,408.5,78.88,408.63,79.59z"/>
	<path class="st0" d="M453.07,66.92c-2.73,4.44-4.5,6.37-5.54,6.37c-0.83,0-1.37-1.16-1.37-3.48c0-3.46,0.67-7.44,2.29-11.77
		c1.33-4.48,3.38-6.57,5.28-6.57c1.78,0,3.85,1.2,5.64,3.73C457.72,58.68,455.53,62.5,453.07,66.92z M456.08,74.82
		c0,3.59,1.71,5.38,5.14,5.38c2.07,0,3.45-0.59,5.01-1.77c-0.69-1.73-1.18-3.6-1.18-5.9c0-3.31,0.55-7.46,1.65-13.01
		c0.82-5.42,1.95-9.21,3.11-11.53c-1.75-1-3.54-1.35-5.33-1.35c-1.63,0-2.81,0.53-3.83,1.46c-1.76-1.16-3.66-1.75-6.27-1.75
		c-4.68,0-8.73,2.82-12.17,8.29c-3.42,5.63-5.13,11.19-5.13,16.94c0,6.12,2.21,9.04,6.33,9.04c4.05,0,8.58-4.48,13.57-13.15
		C456.47,70.36,456.08,72.71,456.08,74.82z"/>
	<path class="st0" d="M481.55,56.33h-1.12c-2.06,0-3.83,0.33-5.56,1.13c-0.04-0.82-0.07-1.38-0.07-1.71c0-1.6,0.48-2.59,1.13-3.37
		c0.65-0.65,2.88-1.11,6.41-1.11c1.01-4.37,1.51-7.23,1.51-8.58c0-0.93-0.4-2.02-0.94-2.94c2.26-0.85,4.42-1.34,6.23-1.34
		c2.39,0,3.86,1.04,3.86,2.83c0,1.18-0.42,2.88-0.98,5.09c-0.7,3.21-1.19,4.9-1.2,4.94h2.75c1.94,0,4.24-0.26,6.92-0.65
		c-0.39,3.79-2.37,5.76-6.8,5.76c-0.47,0-1.08,0-1.8-0.01c-1-0.01-1.64-0.03-2.15-0.03c-1.31,7.11-2.24,11.77-2.24,14.12
		c0,2.71,1.03,3.92,2.83,3.92c1.67,0,3.79-0.69,5.78-2.37c0.54,1.08,0.95,1.82,0.95,2.49c0,1.72-1.09,3.29-3.3,4.43
		c-1.92,1.13-4.18,1.71-6.49,1.71c-5.54,0-8.07-2.74-8.07-7.95C479.2,69.24,479.91,63.93,481.55,56.33z"/>
	<path class="st0" d="M509.78,47.84c2.26-0.84,4.41-1.19,6.18-1.19c2.37,0,3.84,0.9,3.84,2.83c0,0.85-0.36,1.79-0.52,3.1
		c-2.76,10.38-4.02,17.67-4.02,21.28c0,1.77,0.53,3.4,1.3,4.61c-1.79,1.16-3.56,1.73-5.28,1.73c-3.29,0-4.95-1.31-4.95-4.19
		c0-2.69,0.92-6.78,2.18-12.55c1.28-5.91,2.18-9.99,2.18-12.54C510.7,49.85,510.29,48.91,509.78,47.84z M520.97,41.57
		c-1.72,0.85-3.37,1.34-4.95,1.34c-2.22,0-3.05-0.59-3.05-1.75c0-0.49,0.04-1.07,0.12-1.9c0.09-0.84,0.13-1.42,0.13-1.77
		c0-0.28-0.05-0.59-0.15-1.07c2.17-0.66,3.92-1.14,5.21-1.14c2.33,0,3.49,1.02,3.49,2.77C521.76,38.87,521.59,40.04,520.97,41.57z"
		/>
	<path class="st0" d="M535.92,69.66c0-4.38,0.64-8.43,2.22-12.43c1.3-4.01,3.35-6.01,5.64-6.01c2.39,0,3.59,2.04,3.59,6.26
		c0,4.18-0.65,8.21-2.21,12.24c-1.28,4.03-3.06,5.9-5.32,5.9C537.13,75.63,535.92,73.74,535.92,69.66z M550.92,73.34
		c3.82-4.67,5.59-9.84,5.59-15.51c0-3.41-1.08-6.08-2.98-8.29c-2.16-2.08-4.92-3.18-8.03-3.18c-5.1,0-9.58,2.33-13.13,7.13
		c-3.82,4.8-5.59,9.97-5.59,15.65c0,3.46,1.08,6.29,2.98,8.2c2.18,2.21,4.97,3.3,8.39,3.3C543.17,80.64,547.38,78.29,550.92,73.34z"
		/>
	<path class="st0" d="M575.29,59.5c4.18-8.8,8.68-13.14,13.22-13.14c3.42,0,5.14,1.72,5.14,5.15c0,2.52-0.59,6.21-1.75,10.97
		c-1.18,5.04-1.75,8.9-1.75,11.28c0,1.84,0.53,3.51,1.31,4.71c-1.79,1.16-3.57,1.73-5.34,1.73c-3.22,0-4.55-1.31-4.55-4.19
		c0-2.22,0.15-4.98,0.77-8.01c1.66-8.17,2.64-12.52,2.64-13.35c0-0.87-0.42-1.38-0.99-1.38c-1.1,0-3.39,3.14-6.88,9.58
		c-3.49,6.3-5.24,11.03-5.24,14.48c0,0.89,0.08,1.54,0.5,2.26c-1.69,0.5-3.34,0.62-4.97,0.62c-2.81,0-4.08-0.79-4.08-2.92
		c0-1.09,0.1-2.31,0.59-3.96l1.06-3.66c2.28-9.64,3.43-16.13,3.43-19.32c0-0.88-0.37-1.73-0.54-2.55c2.19-0.82,3.99-1.15,5.36-1.15
		c2.65,0,3.83,1.08,3.83,3.1C577.06,50.9,576.47,54.1,575.29,59.5z"/>
</g>
<g>
	<path class="st0" d="M44.94,46.9c-6.25,0-11.2,4.94-11.2,11.19c0,6.1,4.95,11.19,11.2,11.19c6.24,0,11.19-5.09,11.19-11.19
		C56.13,51.84,51.19,46.9,44.94,46.9z M39.76,63.02c-2.6,0-4.8-1.97-4.8-4.67c0-2.59,2.2-4.8,4.8-4.8c2.6,0,4.67,2.2,4.67,4.8
		C44.43,61.05,42.36,63.02,39.76,63.02z"/>
	<path class="st0" d="M54.57,47.18c0,0,5.16-4.84,8.14-12.52c1.06-2.37,6.16-5.22,10.75-1.09c3.73,3.43,2.83,7.69,1.52,9.93
		c-1.17,2.25-4.11,4.29-15.22,5.46c-1.72,0.22-4.79,0.57-5.42-0.6C54.07,47.84,54.15,47.52,54.57,47.18z"/>
	<path class="st0" d="M45.06,43.83c0,0,5.9-4.6,6.18-11.15c0.19-3.11-2.58-9.14-10.24-9.14c-2.03,0-5.76,0.51-7.23,3.09
		c-1.06,1.69-1.12,4.84,1.5,7.48c1.93,1.94,6.48,5.33,7.43,7.91C43.54,44.06,44.08,44.34,45.06,43.83z"/>
	<path class="st0" d="M33.2,46.95c0,0-6.81-4.37-8.57-6.56c-2.9-3.42-4.95-5.51-9.96-4.35c-2.82,0.63-4.83,2.9-5.46,4.55
		c-0.66,1.47-2.25,6.69,6.29,8.97c4.32,1.15,9.27,1.31,11.51,1.04c2.27-0.27,6.19-1.31,6.75-1.94
		C34.34,48.02,34.05,47.56,33.2,46.95z"/>
	<path class="st0" d="M32.66,69.92c0,0,1.4-0.69,1.71,0.54c0.31,1.53-0.27,3.32-1.37,5.09c-0.97,1.77-4.01,6.7-10.9,9.07
		c-2.06,0.66-6.02,1.65-8.8-2.34c-0.67-1.12-2.31-5.61,0.18-9.07c0.44-0.66,2.04-2.75,6.38-2.18C24.6,71.62,28.15,72.55,32.66,69.92
		z"/>
	<path class="st0" d="M44.88,72.14c0,0-1.03,4.56-5.36,7.23c-1.99,1.14-4.37,4.08-4.88,6.38c-0.29,1.6-1.11,8.69,6.89,9.68
		c2.9,0.16,7.46-1.61,8.77-6.83c0.32-1.65,0.69-6.79-1.68-12.04c-0.81-1.69-1.97-4.06-2.61-4.94
		C45.74,71.51,45.06,71.41,44.88,72.14z"/>
	<path class="st0" d="M56.07,68.72c0,0,6.31-1.1,10.85,1.21c3.96,2.15,7.2,4.56,6.33,10.18c-0.31,2.2-1.98,4.56-5.76,6.17
		c-2.24,0.72-5.7,1.1-7.67-2.25c-0.86-1.57-1.4-6.1-2.85-8.56c-0.63-1.2-0.87-1.74-3.15-4.52C53.26,70.29,53.82,69.21,56.07,68.72z"
		/>
</g>
</svg>
